<?xml version="1.0" encoding="UTF-8"?>
<svg id="Layer_2" data-name="Layer 2" xmlns="http://www.w3.org/2000/svg" viewBox="0 0 251.49 81.54">
  <defs>
    <style>
      .cls-1, .cls-2 {
        fill: #fff;
        stroke-width: 0px;
      }

      .cls-2 {
        fill-rule: evenodd;
      }
    </style>
  </defs>
  <g id="Layer_1-2" data-name="Layer 1">
    <g>
      <path class="cls-1" d="m40.77,0L0,40.77l40.77,40.77,40.77-40.77L40.77,0Zm31.6,39.75h-12.23l-13.25-13.25-6.12,6.12-6.12-6.12-13.25,13.25h-12.23l31.6-31.6,31.6,31.6Zm-63.2,2.04h12.23l19.37,19.37,19.37-19.37h12.23l-31.6,31.6-31.6-31.6Z"/>
      <g>
        <g>
          <path class="cls-2" d="m220.73,23.29c-1.92-1.92-4.51-3-7.23-2.99h-7.46v20.47h7.46c2.72,0,5.32-1.08,7.24-3,1.92-1.92,3-4.51,3-7.23s-1.08-5.32-3.01-7.24Zm-3.31,11.16c-1.04,1.04-2.45,1.62-3.92,1.63h-2.77v-11.09h2.77c1.47,0,2.88.58,3.92,1.62,1.04,1.04,1.63,2.45,1.63,3.92s-.58,2.88-1.62,3.92Z"/>
          <path class="cls-2" d="m237.61,40.77h-11.74v-20.47h11.74v4.65h-6.29v2.98h3.96v5.2h-3.96v2.99h6.29v4.65Z"/>
          <path class="cls-2" d="m251.48,40.78h-11.74v-20.47h0s5.44,0,5.44,0h0v15.82h6.3v4.65h0s0,0,0,0Z"/>
        </g>
        <path class="cls-2" d="m112.52,20.29h-6.48l-5.61,10.06-5.61-10.06h-6.48l12.09,21.68,12.09-21.68Z"/>
        <rect class="cls-1" x="113.73" y="20.29" width="5.44" height="20.48"/>
        <path class="cls-2" d="m148.93,20.29h-13.38v5.52h3.97v14.96h5.45v-14.96h3.97v-5.52Z"/>
        <path class="cls-2" d="m198.71,21.66c-3.17-1.83-7.07-1.83-10.24,0-3.17,1.83-5.12,5.21-5.12,8.87s1.95,7.04,5.12,8.87c3.17,1.83,7.07,1.83,10.24,0,3.17-1.83,5.12-5.21,5.12-8.87s-1.95-7.04-5.12-8.87Zm-2.35,13.67c-1.72.99-3.83.99-5.54,0-1.72-.99-2.78-2.82-2.78-4.8s1.06-3.81,2.78-4.81c1.72-.99,3.83-.99,5.54,0,1.72.99,2.77,2.82,2.77,4.81s-1.06,3.81-2.77,4.8Z"/>
        <path class="cls-2" d="m173.96,19.82l-5.19,9.97-5.19-9.97-9.95,20.94h5.61l4.33-9.59,5.19,10.79,5.19-10.79,4.33,9.59h5.61l-9.95-20.94Z"/>
        <path class="cls-2" d="m133.43,40.77h-11.74v-20.48h11.74v4.65h-6.3v2.99h3.97v5.2h-3.97v2.99h6.3v4.65Z"/>
      </g>
      <g>
        <path class="cls-1" d="m99.88,67.81l-1.33-3.1h-6.44l-1.33,3.1h-2.44l5.99-13.23h1.97l5.99,13.23h-2.4Zm-6.98-4.98h4.84l-2.42-5.63-2.42,5.63Z"/>
        <path class="cls-1" d="m112.1,58.63v9.18h-2.29v-1.41c-.29.5-.68.89-1.16,1.15-.49.27-1.04.4-1.65.4-2.25,0-3.38-1.26-3.38-3.79v-5.54h2.35v5.56c0,.65.13,1.13.39,1.45.26.31.68.47,1.24.47.65,0,1.17-.22,1.57-.65.39-.43.59-1,.59-1.72v-5.11h2.35Z"/>
        <path class="cls-1" d="m115.87,67.66c-.68-.2-1.26-.49-1.74-.86l.66-1.63c.98.71,2.1,1.07,3.36,1.07.54,0,.95-.09,1.23-.26.28-.18.42-.43.42-.75,0-.28-.1-.49-.29-.64s-.54-.29-1.04-.41l-1.5-.34c-.85-.19-1.48-.49-1.9-.92s-.62-.98-.62-1.65c0-.56.16-1.06.48-1.49s.76-.77,1.33-1c.57-.24,1.23-.36,1.98-.36.65,0,1.28.1,1.89.3.61.2,1.14.48,1.6.84l-.66,1.6c-.95-.69-1.9-1.03-2.85-1.03-.51,0-.91.09-1.2.28-.29.19-.43.45-.43.79,0,.25.09.46.27.62.18.16.47.29.87.38l1.56.36c.91.2,1.58.52,2.01.95.42.43.64,1,.64,1.7,0,.85-.34,1.53-1.03,2.03-.69.5-1.62.75-2.8.75-.81,0-1.56-.1-2.24-.3Z"/>
        <path class="cls-1" d="m129.49,66.14l-.11,1.75c-.38.04-.72.06-1.03.06-1.29,0-2.24-.3-2.85-.89-.61-.59-.92-1.48-.92-2.66v-4h-1.77v-1.76h1.77v-2.74h2.35v2.74h2.42v1.76h-2.42v3.96c0,1.23.57,1.84,1.71,1.84.27,0,.56-.02.86-.06Z"/>
        <path class="cls-1" d="m137.09,60.36l-1.37.13c-1.55.16-2.33.95-2.33,2.37v4.96h-2.35v-9.18h2.23v1.61c.48-1.1,1.46-1.7,2.95-1.8l.71-.06.15,1.97Z"/>
        <path class="cls-1" d="m145.2,59.34c.63.63.94,1.59.94,2.89v5.58h-2.24v-1.41c-.21.49-.55.87-1,1.15s-.99.41-1.59.41-1.17-.13-1.67-.38c-.5-.25-.9-.59-1.18-1.03-.29-.44-.43-.93-.43-1.46,0-.68.17-1.21.52-1.59s.9-.67,1.68-.84c.78-.18,1.85-.26,3.21-.26h.47v-.43c0-.63-.13-1.08-.4-1.35s-.72-.41-1.34-.41c-.49,0-1,.08-1.53.25s-1.05.4-1.57.7l-.66-1.61c.51-.33,1.13-.59,1.86-.81.73-.21,1.41-.32,2.06-.32,1.29,0,2.25.31,2.87.94Zm-1.89,6.3c.39-.42.59-.96.59-1.62v-.39h-.34c-.84,0-1.49.04-1.95.11s-.79.21-.99.39-.3.44-.3.77c0,.4.14.73.41.99.27.26.62.38,1.05.38.62,0,1.14-.21,1.53-.63Z"/>
        <path class="cls-1" d="m148.71,67.81v-13.23h2.35v13.23h-2.35Z"/>
        <path class="cls-1" d="m153.54,54.37h2.59v2.31h-2.59v-2.31Zm.13,13.44v-9.18h2.35v9.18h-2.35Z"/>
        <path class="cls-1" d="m165.44,59.34c.63.63.94,1.59.94,2.89v5.58h-2.24v-1.41c-.21.49-.55.87-1,1.15s-.99.41-1.59.41-1.17-.13-1.67-.38c-.5-.25-.9-.59-1.18-1.03-.29-.44-.43-.93-.43-1.46,0-.68.17-1.21.52-1.59s.9-.67,1.68-.84c.78-.18,1.85-.26,3.21-.26h.47v-.43c0-.63-.13-1.08-.4-1.35s-.72-.41-1.34-.41c-.49,0-1,.08-1.53.25s-1.05.4-1.57.7l-.66-1.61c.51-.33,1.13-.59,1.86-.81.73-.21,1.41-.32,2.06-.32,1.29,0,2.25.31,2.87.94Zm-1.89,6.3c.39-.42.59-.96.59-1.62v-.39h-.34c-.84,0-1.49.04-1.95.11s-.79.21-.99.39-.3.44-.3.77c0,.4.14.73.41.99.27.26.62.38,1.05.38.62,0,1.14-.21,1.53-.63Z"/>
      </g>
    </g>
  </g>
</svg>